/* XPM */
static char *_904dc98661149919ef7e431caae86e8[] = {
/* columns rows colors chars-per-pixel */
"32 32 10 1 ",
"  c #734136",
". c #3F1700",
"X c #002631",
"o c #544E4E",
"O c #817B7B",
"+ c #353F3F",
"@ c #532F2D",
"# c #351518",
"$ c #70443A",
"% c white",
/* pixels */
".XX.XXXXXXXXXXXXXXXXXXXXXXXX.XX.",
"XooXoOoOXoOoOOoo+ooo++Xo+OOXXooX",
"X++Xoo+oX+oo++++++++++X++ooXX++X",
" XXX++++XXXXXXXXXXXXXXX++++XXXX ",
" X+oXXXX@@#@@@@#$@@@#@#XXXXX+oX ",
" Xo+X@@$$$#@$$@#$$$@@@#@@@@X+oX ",
" Xo+X@$$$$#@$$@#$$@$$@#@$$$X+oX ",
" XOoX@$$$$#@$$@#$$$$$@#@$$$X++X ",
" XOoX@$$$$#@$$@#$$$$$@#@$$$X+oX ",
" Xo+X@$$$@#@$$@#$$$$$@#@$$$X+oX ",
" XOoX@$$$@#$$$$#$$$$$@#@$$$X+oX ",
" Xo+X@$$$@#$$$$#@$$$$@#@$$$X+oX ",
" Xo+X@$$$@#$$$$#@$$$$@#$$$$X++X ",
" X++X@$$$@#$$$$#@$$$$@#$$$$X++X ",
" X++X@$$$@#$$$$#@$$$$@#$$$$X+oX ",
" Xo+X@$$$@#$$$$#@$$$$@#$$$$X+oX ",
" Xo+X@$$$#@$$$$@#$$$$@#$$$$X+oX ",
" Xo+X@$$$#@$$$@XX@$$$@#$$$$X+oX ",
" Xo+X@$$$#@$$@XOOX@$$$#$$$$X+oX ",
" Xo+X@$$$#@$@XXooXX@$$#$$$$X+oX ",
" X+oX@$$$#@@XOX++XoX@$#@$$$X+oX ",
" X+oX@$$@#@XO+XXXX+oX@#@$$@X++X ",
" Xo+X@$$@#@XoX####X+X@#@$$$X+oX ",
" X+XX@$$@#$X+oX@#Xo+X@#@$$@X+oX ",
" X+XX@$$@#$#X+OXXo+X#@#@$$@X+oX ",
" Xo+X@$$@#$@#X+O++X#$@#@$$@X++X ",
" Xo+X@$$@#@$@#XXXX#@@@#@$$@X++X ",
" X+XX@@@@#@@@@@@@@@@@@#@@@@X++X ",
" XXXXXXXXXXXXXXXXXXXXXXXXXXXXXX ",
"X+oXOoOoo++++o++ooooo+o+++++X+oX",
"X++XX+o++XXXXXXX+++++++XXXoXX++X",
".XXXXXXXXXXXXXXXXXXXXXXXXXXXXXX."
};
