/* XPM */
static char *a25674c9fa5c4fc4dafa1142a8d17c7bJauCo7IO0lstGBaI[] = {
/* columns rows colors chars-per-pixel */
"32 32 12 1 ",
"  c #734136",
". c #0F0706",
"X c #A7A7A7",
"o c #CBCBCB",
"O c #6B97EB",
"+ c #ABC7F3",
"@ c #E0C4C4",
"# c #CA999A",
"$ c white",
"% c #B37072",
"& c gray53",
"* c gray39",
/* pixels */
"                                ",
"                                ",
"                                ",
"       ....   ........          ",
"      ..................        ",
"     ..XooX...XXooXX.X...       ",
"     ..X.ooooooooooooooX..      ",
"     ..o...o.oo.o..o.o.o..      ",
"     ..o.o.o.o.o.o.o...o..      ",
"     ..ooooooooooooooooo..      ",
"     ..o...............o..      ",
"     ..o.O++O.....O++O.o..      ",
"     ..o.++O.@@@##.O++.o..      ",
"     ..o.++.$.@#$.#.++.o..      ",
"     ..o.++...##..#.++.o..      ",
"     ..o.++.%#..##%.++.o..      ",
"     ..o.O+O.%###%.O+O.o..      ",
"     ..o...............o..      ",
"     ..ooooooooooooooooo..      ",
"     ..ooooooooooooooooo..      ",
"     ..X....XX....X...Xo..      ",
"     ..Xoooooooooooooooo..      ",
"     ..XooooooX.......Xo..      ",
"     ..&XooooooooooooooX..      ",
"     ..&XXXXXXXXXXXXo.oX..      ",
"      ..............*&X&..      ",
"       ..........**&XXX&..      ",
"               ..........       ",
"                ........        ",
"                                ",
"                                ",
"                                "
};
