/* XPM */
static char *_cfeb9ed0ff6479b9e96376ad3f2af45[] = {
/* columns rows colors chars-per-pixel */
"32 32 10 1 ",
"  c #2B1A15",
". c #39231B",
"X c #492D24",
"o c #704536",
"O c #8E5E52",
"+ c #613C2F",
"@ c #895849",
"# c #835140",
"$ c #704436",
"% c white",
/* pixels */
" .XXXXXXXXXXXXXXXXXXXXXXXXXXXXXX",
".XXooooooooooooooooooooooooooooo",
"X.oOOOOOOOOOOOOOOOOOOOOOOOOOOOOO",
"Xo+@@OOOOOOOO@@@@OOOOOOOOOOOOOoo",
"XOO+#@@@@@@@@####@@@@@@@@@@OoooO",
"XoO@#######################@OOoO",
"XoO@########################@OO#",
"XoO@##o#########################",
"XoO@###o########################",
"XOO@####o#######################",
"X#O@#####+######################",
"XoO@######+#####################",
"XoO@######$+$###################",
"XoO@#######$+$#$#$########$#####",
"XoO@########$+$$$#$#######OO####",
"XoO@#########$+$#$$#$#$#########",
"XoO@##########$+$$$$#$#$#$#$#$##",
"XoO@###########$+$$$$$$#$#$$$$$$",
"XoO@############$+++$$$$$$$$$$X$",
"Xo@###############XXXXXXXXXXXXXX",
"Xo@#############$$$X$###########",
"Xo@############$#$$XX+$$$$$$$$$$",
"Xo@#############$$$X#X+$oooooooo",
"XoO@###########$#$$X#+X+oooooooo",
"XoO@##########$#$$$X#$+X+ooooooo",
"XoO@###########$$$$X#$$+X++oooo+",
"XoO@##########$#$$+X#$$$+X+++oo#",
"XoO@#########$#$$$XX#$$$o+X++++o",
"XoO@##########$$$+XX#$$$o++X++++",
"XoO@###########$$$+X#$$$oo++X+++",
"XoO@###########$#$$X#$$$ooo++XXX",
"XoO@############$$$X#$$$oooo+X.."
};
