/* XPM */
static char *cee3f005082d4e33b85aa1ee71f230a2[] = {
/* columns rows colors chars-per-pixel */
"32 32 10 1 ",
"  c #492D24",
". c #39231B",
"X c #2B1A15",
"o c #704536",
"O c #8E5E52",
"+ c #895849",
"@ c #613C2F",
"# c #835140",
"$ c #704436",
"% c white",
/* pixels */
"                              .X",
"ooooooooooooooooooooooooooooo  .",
"OOOOOOOOOOOOOOOOOOOOOOOOOOOOOo. ",
"ooOOOOOOOOOOOOO++++OOOOOOOO++@o ",
"OoooO++++++++++####++++++++#@OO ",
"OoOO+#######################+Oo ",
"#OO+########################+Oo ",
"#########################o##+Oo ",
"########################o###+Oo ",
"#######################o####+OO ",
"######################@#####+O# ",
"#####################@######+Oo ",
"###################$@$######+Oo ",
"#####$########$#$#$@$#######+Oo ",
"####OO#######$#$$$@$########+Oo ",
"#########$#$#$$#$@$#########+Oo ",
"##$#$#$#$#$#$$$$@$##########+Oo ",
"$$$$$$#$#$$$$$$@$###########+Oo ",
"$ $$$$$$$$$$@@@$############+Oo ",
"              ###############+o ",
"###########$ $$$#############+o ",
"$$$$$$$$$$@  $$#$############+o ",
"oooooooo$@ # $$$#############+o ",
"oooooooo@ @# $$#$###########+Oo ",
"ooooooo@ @$# $$$#$##########+Oo ",
"@oooo@@ @$$# $$$$###########+Oo ",
"#oo@@@ @$$$# @$$#$##########+Oo ",
"o@@@@ @o$$$#  $$$#$#########+Oo ",
"@@@@ @@o$$$#  @$$$##########+Oo ",
"@@@ @@oo$$$# @$$$###########+Oo ",
"   @@ooo$$$# $$#$###########+Oo ",
".. @oooo$$$# $$$############+Oo "
};
