/* XPM */
static char *_cba36fcc698498b8b617a5219d01f1b[] = {
/* columns rows colors chars-per-pixel */
"32 32 10 1 ",
"  c #39231B",
". c #492D24",
"X c #613C2F",
"o c #704536",
"O c #704436",
"+ c #835140",
"@ c #895849",
"# c #8E5E52",
"$ c #2B1A15",
"% c white",
/* pixels */
"  .XooooOOO+.OOO++++++++++++@#o.",
"...XXoooOOO+.OO+O+++++++++++@#o.",
"XXX.XXooOOO+.XOOO+++++++++++@#o.",
"XXXX.XXoOOO+..XOOO++++++++++@#o.",
"oXXXX.XoOOO+..OOO+O+++++++++@#o.",
"+ooXXX.XOOO+.XOO+O++++++++++@#o.",
"XooooXX.XOO+.OOOO+++++++++++@#o.",
"oooooooX.XO+.OOO+O++++++++++@#o.",
"ooooooooX.X+.OO+O+++++++++++@#o.",
"ooooooooOX.+.OOO+++++++++++++@o.",
"OOOOOOOOOOX..OO+O++++++++++++@o.",
"+++++++++++O.OOO+++++++++++++@o.",
"..............+++++++++++++++@o.",
"O.OOOOOOOOOOXXXO++++++++++++@#o.",
"OOOOOO+O+OOOOOOXO+++++++++++@#o.",
"++O+O+O+O+O+OOOOXO++++++++++@#o.",
"+++++++++O+O+OO+OXO+++++++++@#o.",
"++++##+++++++O+OOOXO++++++++@#o.",
"+++++O++++++++O+O+OXO+++++++@#o.",
"+++++++++++++++++++OXO++++++@#o.",
"+++++++++++++++++++++X++++++@#o.",
"++++++++++++++++++++++X+++++@#+.",
"+++++++++++++++++++++++o++++@##.",
"++++++++++++++++++++++++o+++@#o.",
"+++++++++++++++++++++++++o++@#o.",
"+##@++++++++++++++++++++++++@#o.",
"#o##@+++++++++++++++++++++++@#o.",
"#ooo#@@@@@@@@@@++++@@@@@@@@+X##.",
"oo#############@@@@########@@Xo.",
"#############################o .",
"ooooooooooooooooooooooooooooo.. ",
".............................. $"
};
