/* XPM */
static char *_6df0e008b844662a93bc59d8024b3da[] = {
/* columns rows colors chars-per-pixel */
"32 32 10 1 ",
"  c #704536",
". c #8E5E52",
"X c #895849",
"o c #835140",
"O c #704436",
"+ c #492D24",
"@ c #613C2F",
"# c #39231B",
"$ c #2B1A15",
"% c white",
/* pixels */
"+ .XooooooooooooOOO+oOOO    @+##",
"+ .XoooooooooooOoOO+oOOO   @@+++",
"+ .XoooooooooooOOO@+oOOO  @@+@@@",
"+ .XooooooooooOOO@++oOOO @@+@@@@",
"+ .XoooooooooOoOOO++oOOO @+@@@@ ",
"+ .XooooooooooOoOO@+oOOO@+@@@  o",
"+ .XoooooooooooOOOO+oOO@+@@    @",
"+ .XooooooooooOoOOO+oO@+@       ",
"+ .XoooooooooooOoOO+o@+@        ",
"+ XoooooooooooooOOO+o+@O        ",
"+ XooooooooooooOoOO++@OOOOOOOOOO",
"+ XoooooooooooooOOO+Oooooooooooo",
"+ Xooooooooooooooo++++++++++++++",
"+ .XooooooooooooO@@@OOOOOOOOOO+O",
"+ .XoooooooooooO@OOOOOOoOoOOOOOO",
"+ .XooooooooooO@OOOOoOoOoOoOoOoo",
"+ .XoooooooooO@OoOOoOoOooooooooo",
"+ .XooooooooO@OOOoOooooooo..oooo",
"+ .XoooooooO@OoOoOooooooooOooooo",
"+ .XooooooO@Oooooooooooooooooooo",
"+ .Xoooooo@ooooooooooooooooooooo",
"+o.Xooooo@oooooooooooooooooooooo",
"+..Xoooo ooooooooooooooooooooooo",
"+ .Xooo oooooooooooooooooooooooo",
"+ .Xoo ooooooooooooooooooooooooo",
"+ .XooooooooooooooooooooooooX..o",
"+ .XoooooooooooooooooooooooX.. .",
"+..@oXXXXXXXXooooXXXXXXXXXX.   .",
"+ @XX........XXXX.............  ",
"+# .............................",
"#++                             ",
"$#++++++++++++++++++++++++++++++"
};
