/* XPM */
static char *_53630fa08644387a84257a9add863473l6J4AeSdZlNUYl9[] = {
/* columns rows colors chars-per-pixel */
"32 32 9 1 ",
"  c #734136",
". c #080000",
"X c #CBCBCB",
"o c #FFFFFE",
"O c gray53",
"+ c white",
"T c gray45",
"L c #979797",
"x c gray92",
/* pixels */
"            ........            ",
"          ............          ",
"        ....XXXXXXXX....        ",
"       ...XooooooooooX...       ",
"      ..XooooooooooooooX..      ",
"     ..XooooooooooooooooX..     ",
"    ..XooooooooooooooooooX..    ",
"    ..oooooooooooooooooooo..    ",
"   ..XooooooooooooooooooooX..   ",
"   ..ooooooXXXXXooooXoooooo..   ",
"  ..XoooooXO....OoooXooooooX..  ",
"  ..XXoooXO......ooXoooooooX..  ",
"   ..XXXXX.......XXooooooooX..  ",
"    ..XXXX.......ooooooooooX..  ",
"    ..XooX.......oooooooooXO..  ",
"    ..XooX.......oooooooooX..   ",
"    ..ooooX.....XooooooooXO..   ",
"   ..XOoooooXXXXooooooooXX..    ",
"  ..XooXooooooooXXXXooXXXO..    ",
"  ..oooXXXoooooX....XXOO...     ",
"  ..oooOOOXoXO............      ",
"  ..ooo...OXO...LLT.....        ",
"  ..OXO. .....LL.LLT..          ",
"   .....  ...LLLL.xxL..         ",
"    ...  ..LLLLLL.xxxL..        ",
"        ...xxxL..L.xxL..        ",
"        ..LLxxxxxxL.xL..        ",
"        ..LLLX.xxxL....         ",
"        ..LLLX.xxxL...          ",
"         ..LLX.LLL...           ",
"          ..........            ",
"           ........             "
};
