/* XPM */
static char *bcd922974e2a4f28b6c92bffcb92d692W9I2yuydnnkrBlNB[] = {
/* columns rows colors chars-per-pixel */
"32 32 8 1 ",
"  c #734136",
". c #080000",
"X c #CBCBCB",
"o c #FFFFFE",
"O c gray53",
"+ c white",
"L c #979797",
"x c gray92",
/* pixels */
"            ........            ",
"          ............          ",
"        ....XXXXXXXX....        ",
"       ...XooooooooooX...       ",
"      ..XooooooooooooooX..      ",
"     ..XXXXXXXooooXXXXXXX..     ",
"    ..XoooooooXooXoooooooX..    ",
"    ..oooooooooooooooooooo..    ",
"   ..XooooooooooooooooooooX..   ",
"   ..ooXXXXXooooooooXXXXXoo..   ",
"  ..XoO....OXooooooXO....OoX..  ",
"  ..XX......OXooooXO......XX..  ",
"  ..XX.......XXXXXX.......XX..  ",
"  ..XX.......XXXXXX.......XX..  ",
"  ..OX.......XXooXX.......XO..  ",
"   ..X.......XooooX.......X..   ",
"   ..OX.....XooooooX.....XO..   ",
"    ..XXXXXooooooooooXXXXX..    ",
"    ..OXXooooXOXXOXooooXXO..    ",
"     ..OXXXoXoXooXoXoXXXO..     ",
"      ......ooXooXoo......      ",
"       .....ooXooXoo.....       ",
"         ...OXOXXOXO...         ",
"        ..L..........L..        ",
"       ..Lxx........xxL..       ",
"       ..Lx.L..xxxxL.xL..       ",
"       ..Lx.xxxxxxxx.xL..       ",
"        ....xxL..Lxx....        ",
"         ...xxx..Lxx...         ",
"          ...xx..Lxx..          ",
"           ..........           ",
"            ...  ...            "
};
