/* XPM */
static char *_6350ef8deb648a3aa4e3e610fc89f44AnHrZuOdfynJvXQK[] = {
/* columns rows colors chars-per-pixel */
"32 32 9 1 ",
"  c #734136",
". c #080000",
"X c #CBCBCB",
"o c #FFFFFE",
"O c gray53",
"+ c white",
"T c gray45",
"L c #979797",
"x c gray92",
/* pixels */
"            ........            ",
"          ............          ",
"        ....XXXXXXXX....        ",
"       ...XooooooooooX...       ",
"      ..XooooooooooooooX..      ",
"     ..XooooooooooooooooX..     ",
"    ..XooooooooooooooooooX..    ",
"    ..oooooooooooooooooooo..    ",
"   ..XooooooooooooooooooooX..   ",
"   ..ooooooXooooXXXXXoooooo..   ",
"  ..XooooooXoooO....OXoooooX..  ",
"  ..XoooooooXoo......OXoooXX..  ",
"  ..XooooooooXX.......XXXXX..   ",
"  ..Xoooooooooo.......XXXX..    ",
"  ..OXooooooooo.......XooX..    ",
"   ..Xooooooooo.......XooX..    ",
"   ..OXooooooooX.....Xoooo..    ",
"    ..XXooooooooXXXXoooooOX..   ",
"    ..OXXXooXXXXooooooooXooX..  ",
"     ...OOXX....XoooooXXXooo..  ",
"      ............OXoXOOOooo..  ",
"        ....TLL....OXO...ooo..  ",
"          ..TLL.LL..... .OXO..  ",
"         ..Lxx.LLLL...  .....   ",
"        ..Lxxx.LLLLLL..  ...    ",
"        ..Lxx.L..Lxxx...        ",
"        ..Lx.LxxxxxxLL..        ",
"         ....Lxxx.XLLL..        ",
"          ...Lxxx.XLLL..        ",
"           ...LLL.XLL..         ",
"            ..........          ",
"             ........           "
};
