/* XPM */
static char *_a8ce83eb5bd49289b97c5ff9bf9b60axpcaubMajEpy6C22[] = {
/* columns rows colors chars-per-pixel */
"32 32 8 1 ",
"  c #734136",
". c #080000",
"X c #CBCBCB",
"o c #FFFFFE",
"O c gray53",
"+ c white",
"L c #979797",
"x c gray92",
/* pixels */
"            ........            ",
"          ............          ",
"        ....XXXXXXXX....        ",
"       ...XooooooooooX...       ",
"      ..XoOooooooooooooX..      ",
"     ..XoooOooooooooooooX..     ",
"    ..XoooooXooooooooooooX..    ",
"    ..ooooooXooooooooooooo..    ",
"   ..XooooooOXXXooooooooooX..   ",
"   ..ooooooXooooXXooooooooo..   ",
"  ..XoooooooooooooXooooooooX..  ",
"  ..XooooooXoooooooooooooooX..  ",
"  ..XooooooooooooooooooooooX..  ",
"  ..XooooooooooooooooooooooX..  ",
"  ..OXooooooooooooooooooooXO..  ",
"   ..XooooooooooooooooooooX..   ",
"   ..OXooooooooooooooooooXO..   ",
"    ..XooooooooooooooooooX..    ",
"    ..OXXooooooooooooooXXO..    ",
"     ..OOXXXooooooooXXXOO..     ",
"      ...OOOXXXXXXXXOOO...      ",
"       ..................       ",
"         ..............         ",
"        ..Lx.LLLLLLLxL..        ",
"       ..Lxx.LLLLLLLxxL..       ",
"       ..Lx.L..xxxxL.xL..       ",
"       ..Lx.xxxxxxxx.xL..       ",
"        ....xxL..Lx.....        ",
"         ...xxx..L.x...         ",
"          ...xx..L....          ",
"           ..........           ",
"            ...  ...            "
};
