/* XPM */
static char *b40c12893a124dd1e99820c7214ae64ayeR7THuzZaD5St41[] = {
/* columns rows colors chars-per-pixel */
"32 32 5 1 ",
"  c #734136",
". c #683F33",
"X c #734636",
"o c #734436",
"O c white",
/* pixels */
"                                ",
"                                ",
"                                ",
"                                ",
"                                ",
"                                ",
"                                ",
"                                ",
"                                ",
"                                ",
"              . ...  .          ",
"                                ",
"                                ",
"                                ",
"                                ",
"                                ",
"                                ",
"                       XXXXXX   ",
"                X    o  XXXoo   ",
"                  XXX oo        ",
"            oooXXXXXXXXoo       ",
"             oooXXXXXXXXXXoo    ",
"              oooXXXXXXo        ",
"                                ",
"                                ",
"                                ",
"                                ",
"                                ",
"                                ",
"                                ",
"                                ",
"                                "
};
