/* XPM */
static char *f4d18effcf954122e3a3f7ed825685adEFrwbkP3XHT4o1Nk[] = {
/* columns rows colors chars-per-pixel */
"32 32 12 1 ",
"  c #734136",
". c #080000",
"X c #CF9C9B",
"o c #E3C6C5",
"O c white",
"+ c #B97371",
"@ c #9CC8CC",
"# c #9CC8CD",
"$ c #68989C",
"% c #9DC9CD",
"& c #67979C",
"* c #67979B",
/* pixels */
"            ........            ",
"          ............          ",
"        ....XXXXXXXX....        ",
"       ...XooooooooooX...       ",
"      ..XooooooooooooooX..      ",
"     ..XooooooooooooooooX..     ",
"    ..XooooooooooooooooooX..    ",
"    ..oooooooooooooooooooo..    ",
"   ..XooooooooooooooooooooX..   ",
"   ..oooooooooooooooooooooo..   ",
"  ..XooooooooooooooooooooooX..  ",
"  ..XoX....XooooooooX....XoX..  ",
"  ..Xo.OO...oooooooo.OO...oX..  ",
"  ..XX.OO...oooooooo.OO...XX..  ",
"  ..+X......oo....oo......X+..  ",
"   ..X......o......o......X..   ",
"   ..+X....Xo.OOOO.oX....X+..   ",
"    ..X@@@Xoo......ooX@@@X..    ",
"    ..+###oooooooooooo###+..    ",
"     ..$@%oooooooooooo@#&..     ",
"      ..&@XooooooooooX@*..      ",
"       ...*XooooooooX&...       ",
"        ....+XXXXXX+....        ",
"       ..O...........O..        ",
"       ..oOX........XoO..       "
"       ..OX.OXXXXXXO.XO..       ",
"       ..OX.XXXXXXXX.XO..       ",
"        ....XXO..OXX....        ",
"         ...XXX..OXX...         ",
"          ...XX..OX...          ",
"           ..........           ",
"            ...  ...            "
};
