/* XPM */
static char *_eeaeb5dfc714fe196587c0d4f85ee84ikmLT9ezdfdndkYF[] = {
/* columns rows colors chars-per-pixel */
"32 32 9 1 ",
"  c #734136",
". c #080000",
"X c #CF9C9B",
"o c #E3C6C5",
"O c white",
"+ c #B97371",
"@ c #9CC8CC",
"# c #9CC8CD",
"$ c #67979C",
/* pixels */
"            ........            ",
"          ............          ",
"        ....XXXXXXXX....        ",
"       ...XooooooooooX...       ",
"      ..XooooooooooooooX..      ",
"     ..XooooooooooooooooX..     ",
"    ..XooooooooooooooooooX..    ",
"    ..oooooooooooooooooooo..    ",
"   ..XooooooooooooooooooooX..   ",
"   ..oooooooooooooooooooooo..   ",
"  ..XoooooX....XoooooooooooX..  ",
"  ..Xooooo...OO.oooooooooooX..  ",
"  ..Xooooo...OO.oooooooooooX..  ",
"  ....Xooo......oooooooooooX..  ",
"  .....Xoo......ooooooooooX+..  ",
"  ..OOO.ooX....XooooooooooX..   ",
"  ......ooo@@@@ooooooooooX+..   ",
"   ..XXXooo###@ooooooooooX..    ",
"   ..+Xoooo##@@oooooooooX+..    ",
"    ..+Xooo###@ooooooooX+..     ",
"     ..+Xoo####ooooooXX+..      ",
"      ...+X$###oooooX+...       ",
"       .....$$$XXXX+....        ",
"         .............          ",
"        ..XX........oX..        ",
"        ...ooooooX.ooX..        ",
"        ..XXooooooX.oX..        ",
"        ..XXX+.oooX....         ",
"        ..XXX+.oooX...          ",
"         ..XX+.XXX...           ",
"          ..........            ",
"           ........             "
};
};