/* XPM */
static char *d97e0e990dc7468f9ef46a6be795b555[] = {
/* columns rows colors chars-per-pixel */
"32 32 12 1 ",
"  c #734136",
". c #3F1700",
"X c #002631",
"o c #544E4E",
"O c #817B7B",
"+ c #353F3F",
"@ c #532F2D",
"# c #70443A",
"$ c #351518",
"% c #00000D",
"& c #1E0F15",
"* c white",
/* pixels */
".XX.XXXXXXXXXXXXXXXXXXXXXXXX.XX.",
"XooXoOoOXoOoOOoo+ooo++Xo+OOXXooX",
"X++Xoo+oX+oo++++++++++X++ooXX++X",
" XXX++++XXXXXXXXXXXXXXX++++XXXX ",
" X+oXXXX@@##@@@@#@@@$@$XXXXX+oX ",
" Xo+X@#############@@#####@X+oX ",
" Xo+X#############@########X+oX ",
" XOoX$$$$$@$$@@$$$$$$$@$$$$X++X ",
" XOoX@@$@@@@$@@@@$@@@@$@@@@X+oX ",
" Xo+X@@@$@@@$@@@@$@@@$@@@@@X+oX ",
" XOoX%$$&$$$$&$$$&$$$&$$$$%X+oX ",
" Xo+X%%$$&$$$&$$$&$$&$$$$%%X+oX ",
" Xo+X%%%&&%&&%&&%&&%&&&%%%%X++X ",
" X++X%%%%&&%&%&&%&%&&%%%%%%X++X ",
" X++X%%%%%%%%%%%%%%%%%%%%%%X+oX ",
" Xo+X%%%%%%%%%%%%%%%%%%%%%%X+oX ",
" Xo+X%%%%%%%%%%%%%%%%%%%%%%X+oX ",
" Xo+X%%%%%%%%%%%%%%%%%%%%%%X+oX ",
" Xo+X%%%%%%%%%%%%%%%%%%%%%%X+oX ",
" Xo+X%%%%%%%%%%%%%%%%%%%%%%X+oX ",
" X+oX%%%%%%%%%%%%%%%%%%%%%%X+oX ",
" X+oX%%%%%%%%%%%%%%%%%%%%%%X++X ",
" Xo+X%%%%%%%%%%%%%%%%%%%%%%X+oX ",
" X+XX%%%%%%%%%%%%%%%%%%%%%%X+oX ",
" X+XX%%%%%%%%%%%%%%%%%%%%%%X+oX ",
" Xo+X%%%%%%%%%%%%%%%%%%%%%%X++X ",
" Xo+X%%%%%%%%%%%%%%%%%%%%%%X++X ",
" X+XX%%%%%%%%%%%%%%%%%%%%%%X++X ",
" XXXXXXXXXXXXXXXXXXXXXXXXXXXXXX ",
"X+oXOoOoo++++o++ooooo+o+++++X+oX",
"X++XX+o++XXXXXXX+++++++XXXoXX++X",
".XXXXXXXXXXXXXXXXXXXXXXXXXXXXXX."
};
