/* XPM */
static char *_591f180fbd042df8a5ef366235c3adf[] = {
/* columns rows colors chars-per-pixel */
"32 32 9 1 ",
"  c #39231B",
". c #492D24",
"X c #613C2F",
"o c #704536",
"O c #835140",
"+ c #704436",
"@ c #8E5E52",
"# c #895849",
"$ c white",
/* pixels */
"                                ",
"........... ...  ..........  ...",
"XXXXXXXXXXX.XXX. .XXXXXXXXX...XX",
"XoXoXoXoXoXXXXX. XoXoXoXoXXXXXXX",
"oXoooooooooXoXX. oXoooooooXoXoXo",
"ooooooooooooXoX..XooooOooooXoXoX",
"oooooooooooooXoX. oooooXoooooooo",
"oooooOoooooooooX. Xooooooooooooo",
"oooooXoooooooooX. oooooooooooooo",
"oooooooooooooooX..Xooooooooooooo",
"++++++++++++++++..+++++++++++O++",
"OOOOOOOOOOOOOOO.. .+OOOOOOOOOX+O",
"................ ............  .",
"..X++++++++++X+++++++++++++++..+",
"X++++++O+O+++++++++++O+O+O+OO+++",
"++++O+O+O+O++O++O+O+O+O+OOOOOOO+",
"+O+O+OO+OOOOOOOO+O+OOOOOOOOOOOOO",
"+++O+OOOOOOO@OOOOOOOOOOOOOOOOOOO",
"O+O+OOOOOOOO+OOOOOOOOOOOOOOOOOOO",
"OOOOOOOOOOOOOOOOOOOOOOOOOOOOOOOO",
"OOOOOOOOOOOOOOOOOOOOOOOOOOOOOOOO",
"OOOOOOOOOOOOOOOOOOOOOOOOOOOOOOOO",
"OOOOOOOOOOOOOOOOOOOOOOOOOOOOOOOO",
"OOOOOOOOOOOOOOOOOOOOOOOOOOOOOOOO",
"OOOOOOOOOOOOOOOOOOO@OOOOOOOOOOOO",
"OOOOOOOOOOOOOOOOO@@oOOOOOOOOOOOO",
"OOOOOOOOOOOOO#OO@@ooOOOOOOOOOOOO",
"###OOOO######@##@oo.O####OOOOOOO",
"@@@####@@@@@@@@@@O@oo@@@@#######",
"@@@@@@@@@@@@@@@@@@@@@@@@@@@@@@@@",
"oooooooooooooooooooooooooooooooo",
"................................"
};
