/* XPM */
static char *d97a32c4474b41a5a2a047956111930c[] = {
/* columns rows colors chars-per-pixel */
"32 32 9 1 ",
"  c #492D24",
". c #704536",
"X c #8E5E52",
"o c #895849",
"O c #835140",
"+ c #704436",
"@ c #613C2F",
"# c #39231B",
"$ c white",
/* pixels */
" .XXoOOOOOOOOO+++@  O+......@@ #",
" .XXoOOOOOOOO++O++  O+.....@.@ #",
" .XXoOOOOOOOOO++++@ O+......@@ #",
" .XoOOOOOOOOO+OO+++ O+.......@ #",
" .XoOOOOOOOOOO++O++ O+......@@ #",
" .XoOOOOOOOOOOOO+++ O+.@O....@ #",
" .XoOOOOOOOOOOOOO++ O+......@@ #",
" .XXoOOOOOOOOOO++O+ O+.......@ #",
" .XXoOOOOOOOOOOOO++ O+......@@ #",
" .XXoOOOOOOOOOOO+O+ O+.......@ #",
" .XXoOOOOOOOOOOOO++ O+......@@ #",
" .XXoOOOOOOOOOOO+++ O+.....@@ ##",
" .XXoOOOOOOOO+XO+++ O+....@.@@ #",
" .XXXoOOOOOOOOOOO+@ O+...@.@@@ #",
" .XXoOOOOOOOOOOO+++ O+....@@@@ #",
" .XXoOOOOOOOOOOO+++  +@@@@    ##",
" .XXXXOOOOOOOOO+O++#       #####",
" .XO.XXOOOOOOOOO+++ #  ###@.@  #",
" .XX..XOOOOOOOO+O++  +@.@..@.@ #",
" .X. ..XOOOOOOOO+++ ++......@@ #",
" .X.OOOOOOOOOOOOO++ O+.......@ #",
" .XXoOOOOOOOOOOO+O+ O+......@@ #",
" .XXoOOOOOOOOOOOO++ O+....O..@ #",
" .XXoOOOOOOOOOOO+O+ O+...@..@@ #",
" .XXoOOOOOOOOOOOO++ O+.......@ #",
" .XoOOOOOOOOOOOOOO+ O+......@@ #",
" .XoOOOOOOOOOOOOO++ O+.....@@@ #",
" .XoOOOOOOOOOOOOOO+ O+....@.@ ##",
" .XoOOOOOOOOOOOOOO+ O+.....@@ ##",
" .XoOOOOOOOOOOOOO+ #@O....@.@  #",
" .XoOOOOOOOOOOOOO+ #++.....@@@ #",
" .XoOOOOOOOOOOOO+++ O+....@.@@ #"
};
