/* XPM */
static char *d02d24d324974b3191d5cba1c0bd081a[] = {
/* columns rows colors chars-per-pixel */
"32 32 9 1 ",
"  c #492D24",
". c #704536",
"X c #8E5E52",
"o c #895849",
"O c #835140",
"+ c #704436",
"@ c #613C2F",
"# c #39231B",
"$ c white",
/* pixels */
"                                ",
"................................",
"XXXXXXXXXXXXXXXXXXXXXXXXXXXXXXXX",
"oooooooXXXX..XOXXXXXXXXXXooooXXX",
"OOOOOOOooooO ..XooXooooooOOOOooo",
"OOOOOOOOOOOO..XXOOoOOOOOOOOOOOOO",
"OOOOOOOOOOOO.XXOOOOOOOOOOOOOOOOO",
"OOOOOOOOOOOOXOOOOOOOOOOOOOOOOOOO",
"OOOOOOOOOOOOOOOOOOOOOOOOOOOOOOOO",
"OOOOOOOOOOOOOOOOOOOOOOOOOOOOOOOO",
"OOOOOOOOOOOOOOOOOOOOOOOOOOOOOOOO",
"OOOOOOOOOOOOOOOOOOOOOOOOOOOOOOOO",
"OOOOOOOOOOOOOOOOOOOOOOOOOOOOOOOO",
"OOOOOOOOOOOOOOOOOOO+OOOOOOOO+O+O",
"OOOOOOOOOOOOOOOOOOOXOOOOOOO+O+++",
"OOOOOOOOOOOOO+O+OOOOOOOO+OO+O+O+",
"+OOOOOOO+O+O+O+O++O++O+O+O+O++++",
"+++OO+O+O+O+++++++++++O+O++++++@",
"+  +++++++++++++++@++++++++++@  ",
" ##            #                ",
"O+@OOOOOOOOO+ #  OOOOOOOOOOOOOOO",
"++O+++++++++++  ++++++++++++++++",
".............@  @...............",
"..............# @.........@.....",
".............@# @.........O.....",
"........@.....# @.@.............",
"@.@.@....O....@  @.@............",
".@.@.@.......@.# @@.@.........@.",
"@@@@@@@.@.@.@.@# @@@@@.@.@.@.@.@",
"@@   @@@@@@@@@ # @@@ @@@@@@@@@@@",
"   ##          ##   #           ",
"################################"
};
