/* XPM */
static char *a83e3126c0eb4185a3fc4e2aa71e44b1[] = {
/* columns rows colors chars-per-pixel */
"32 32 9 1 ",
"  c #39231B",
". c #492D24",
"X c #613C2F",
"o c #704536",
"O c #704436",
"+ c #835140",
"@ c #895849",
"# c #8E5E52",
"$ c white",
/* pixels */
" .XXoXooooO+.OOO++++++++++++@#o.",
" .XXXoooooOO .O+++++++++++++@#o.",
" ..XoXoooo+X .O+++++++++++++@#o.",
"  .XXoooooO+.O++++++++++++++@#o.",
"  .XoXooooO+.O++++++++++++++@#o.",
" .XXXoooooO+.OO+++++++++++++@#o.",
" .XXooooooO+.O++++++++++++++@#o.",
" .XoooooooO+.OO++++++++++++@##o.",
" .XXooXoooO+.O+O+++++++++++@##o.",
" .Xoo+ooooO+.OO++++++++++++@##o.",
" .XXooooooO+.O+O+++++++++++@##o.",
" .XoooooooO+.OO+++++++++++++o#o.",
" .XXooooooOO.OOO++++++++#oo.o#o.",
" .XoXooXoXO..OO+O++++++++#oo##o.",
" ..XoX   .. .OOO+++++++++##o+#o.",
"     ....... OO+O+++++++++####o.",
"  ....XXXXO..OOO+++++++++++@##o.",
" .XXXXooooO+.OOO+++++++++++@##o.",
" .XXXoXoooO+.XO+++++++++++@###o.",
" .XXoXooooO+.OOO+#O++++++++@##o.",
"  .XXoooooO+.OOO+++++++++++@##o.",
" .XXooooooO+.OO++++++++++++@##o.",
" .XoooooooO+.O+O+++++++++++@##o.",
" .XXooooooO+.OO++++++++++++@##o.",
" .XoooooooO+.O+OO++++++++++@##o.",
" .XXooooooO+.OO+++++++++++++@#o.",
" .Xoooo+XoO+.OOO++++++++++++@#o.",
" .XXooooooO+.OO+OO++++++++++@#o.",
" .XoooooooO+.OOO++O+++++++++@#o.",
" .XXooooooO+.XOOOO+++++++++@##o.",
" .XoXoooooO+..OO+OO++++++++@##o.",
" .XXooooooO+..XOOO+++++++++@##o."
};
