/* XPM */
static char *_c8c5e2d7f3d4f9ffbb8e23677d101f0bkhiGwlzLCDl8qfK[] = {
/* columns rows colors chars-per-pixel */
"32 32 94 2 ",
"   c None",
".  c #1B1616",
"X  c #1E1918",
"o  c #221C1B",
"O  c #26201F",
"+  c #28201F",
"@  c #272120",
"#  c #2C2524",
"$  c #2E2827",
"%  c #2F2928",
"&  c #302725",
"*  c #312827",
"=  c #332C2A",
"-  c #382F2E",
";  c #39302F",
":  c #3D3332",
">  c #423735",
",  c #433836",
"<  c #463B39",
"1  c #493E3C",
"2  c #4B403E",
"3  c #4E4341",
"4  c #4C4242",
"5  c #4D4240",
"6  c #4D4443",
"7  c #4F4442",
"8  c #4E4443",
"9  c #4D4544",
"0  c #4B4140",
"q  c #504543",
"w  c #514745",
"e  c #504746",
"r  c #514847",
"t  c #524846",
"y  c #534947",
"u  c #544846",
"i  c #544946",
"p  c #554A47",
"a  c #524948",
"s  c #5A504F",
"d  c #5A5150",
"f  c #5B5250",
"g  c #5A5352",
"h  c #5C5251",
"j  c #5D5452",
"k  c #5E5553",
"l  c #605654",
"z  c #605756",
"x  c #605857",
"c  c #635958",
"v  c #645A58",
"b  c #645A59",
"n  c #645B59",
"m  c #665C5A",
"M  c #645D5C",
"N  c #665F5D",
"B  c #6B6260",
"V  c #6E6361",
"C  c #6D6463",
"Z  c #6E6462",
"A  c #6D6564",
"S  c #6E6564",
"D  c #6F6766",
"F  c #6F6667",
"G  c #706765",
"H  c #716765",
"J  c #736765",
"K  c #706868",
"L  c #756D6B",
"P  c #746C6C",
"I  c #776F6D",
"U  c #786D6B",
"Y  c #786E6C",
"T  c #796F6D",
"R  c #7E7472",
"E  c #7E7473",
"W  c #7E7574",
"Q  c #857A78",
"!  c #847B79",
"~  c #867B79",
"^  c #847B7A",
"/  c #8D8380",
"(  c #8E8584",
")  c #938885",
"_  c #928987",
"`  c #948A88",
"'  c #958B89",
"]  c #988E8C",
"[  c #988F8F",
"{  c #9B908E",
"}  c #9B918F",
"|  c #9D9390",
" . c #9C9291",
".. c #9E9491",
/* pixels */
"  o @ o @ O O O O O O O O O O O O O O O @ @ @ @ @ O @ @ o @ o   ",
"O & n g o = = = = = = = = = = = = = = * $ $ $ # % = = o g n & O ",
"# * 2 Y E * = > : : : : : : : : : : : : = % = = : = * E Y 0 * $ ",
"O * # q Q z - @ # # # # $ * & * = = = - = * - : = : x Q 0 o $ @ ",
"O = : * ; D r 8 j s g g a 8 e 9 > : : : : : : : = 1 D - o * $ @ ",
"O = : : = @ K  . .} } ..Q L W I r 5 5 2 1 > > > < : o $ * * $ @ ",
"O = : : = * _ U ; < , , , , , , > > > > > > > > , : % % % * $ @ ",
"O = : : = = ' Z & > : : : > : > > > > > > > e 1 > : % # $ * $ @ ",
"O = : : = = ] H * < , , > > , , > > > > > > 1 < > : % $ $ * $ @ ",
"O = : ; = - Q m = , > > 2 1 > > > > > > > > > > , : % % % * $ @ ",
"O = : ; = = I j - , > > 5 2 > > > > > > > > > > , : % % % * $ @ ",
"O = : : = * D h - , > > > > > > > > > > , < , > , : % % % * $ @ ",
"O = : ; = * 2 1 > > > > > > > > > > > > < r < : , : % % % * $ @ ",
"@ $ = : = * 2 1 > > > > > > > > > > > > > , > > 1 < % $ * $ @ @ ",
"@ # = : = * 1 1 > > > > > > > > > > > > > > > > 1 1 % $ * $ @ @ ",
"O * ; ; - = 1 < > > > > > > > > > > > > > > > > 1 < $ $ * % # @ ",
"O = : ; - : 1 < > > > > > > > > > > > > > > > > 1 1 # $ * * $ @ ",
"O = : = - ; < < > > > > > > > > > > < < > > > : 1 1 # $ * * $ @ ",
"O = = * ; ; : , > > , > > > > > > > 5 8 > > , : 2 5 # $ * * $ @ ",
"O = : ; ; ; > , > < r < > > > > > > > > > > > : c D @ # * * $ @ ",
"O = : ; - = > , > , < , , , , , , 1 2 1 5 q 5 x ] ( @ # * * $ @ ",
"O = : : = o N z = * = = = = = = = ; : : : : = 2 Z n @ $ * * $ @ ",
"O * > * * D H 2 $ # $ $ $ $ $ $ $ $ # $ # # @ # - < , $ # * $ @ ",
"O = * = B _ 1 o * * * * * * * * * * * * * * * % * , r , # $ $ @ ",
"@ * = Z ' = # * * % % % % $ $ $ % % % % $ % $ * $ $ : p : # # O ",
"@ + E / = # $ * % % % % % % $ $ % % * $ # % $ $ % $ % : p < O @ ",
"o N H : @ $ % % % % % % % % % % % $ # $ % # # $ % % % $ : p < o ",
"@ 1 : o # $ $ $ $ $ $ $ $ $ $ $ $ # # $ $ # # $ $ $ $ # # : : @ ",
"@ o $ $ $ $ $ $ $ $ $ $ $ $ $ $ $ $ $ $ $ $ $ $ $ $ $ $ # * + O ",
"@ . @ $ $ $ $ $ $ $ $ $ $ $ $ $ $ $ $ $ $ $ $ $ $ $ $ $ $ @ . O ",
"@ @ $ o o o o o o o o o o o o o o o o o o o o o o o o o o $ @ O ",
"@ o o o o o o o o o o o o o o o o o o o o o o o o o o o o o o O "
};
